<svg xmlns="http://www.w3.org/2000/svg" viewBox="0 0 27 27"><path d="M1 1h7v7h-7zM10 1h2v1h2v2h1v1h-5v1h4v3h1v1h-1v1h-1v-4h-1v1h-1v-1h-1v1h1v1h1v2h-3v1h-2v-1h1v-1h2v-1h-1v-6h1v1h1v-2h-1zM14 1h2v1h-2zM19 1h7v7h-7zM2 2v5h5v-5zM16 2h2v1h-1v1h1v1h-2v-1h-1v-1h1zM20 2v5h5v-5zM3 3h3v3h-3zM12 3v1h1v-1zM21 3h3v3h-3zM15 5h1v1h1v1h-1v1h-1zM17 7h1v3h-2v-1h1zM1 9h1v1h-1zM3 9h5v1h-1v1h-2v-1h-1v1h1v1h-3v-2h1zM19 9h5v1h-1v1h-1v-1h-1v1h-1v-1h-1zM15 10h1v1h2v1h-1v1h-1v-1h-1zM24 10h1v1h-1zM19 11h1v2h2v1h-5v-1h1v-1h1zM21 11h1v1h-1zM25 11h1v1h-1zM1 12h1v6h-1zM6 12h1v1h1v1h-1v1h1v1h-1v1h1v-1h1v1h1v1h1v-2h1v3h2v1h-1v1h3v-1h1v-2h-1v-3h2v1h1v1h3v2h1v1h-1v1h2v1h-1v1h1v1h-2v-1h-1v-1h-1v1h-1v-1h-5v1h1v1h-2v-2h-1v-1h-1v-1h-1v-1h-1v-1h-3v-3h-3v-1h3zM9 12h1v1h1v1h-2zM13 12h1v1h-1zM22 12h1v1h-1zM12 13h1v1h-1zM14 13h2v1h-2zM23 13h3v1h-1v1h-1v-1h-1zM13 14h1v1h-1zM22 14h1v3h-1v-1h-3v-1h3zM10 15h1v1h-1zM14 15h1v1h-1zM25 15h1v3h-1v1h-1v-1h-1v-1h1v-1h1zM13 16h1v1h1v1h1v1h-2v-1h-1zM3 17h2v1h-2zM18 18v3h3v-3zM1 19h7v7h-7zM19 19h1v1h-1zM25 19h1v2h-1zM2 20v5h5v-5zM9 20h1v3h1v-1h1v2h1v1h-2v-1h-2zM3 21h3v3h-3zM24 22h2v4h-4v-1h3v-2h-1zM16 23h1v1h-1zM18 23h1v1h-1zM20 23h1v3h-2v-1h1zM17 24h1v1h-1zM9 25h1v1h-1zM13 25h4v1h-4z"/></svg>