<?xml version="1.0" encoding="utf-8"?>
<!-- Generator: Adobe Illustrator 16.0.0, SVG Export Plug-In . SVG Version: 6.00 Build 0)  -->
<!DOCTYPE svg PUBLIC "-//W3C//DTD SVG 1.1//EN" "http://www.w3.org/Graphics/SVG/1.1/DTD/svg11.dtd">
<svg version="1.1" id="图层_1" xmlns:sketch="http://www.bohemiancoding.com/sketch/ns"
	 xmlns="http://www.w3.org/2000/svg" xmlns:xlink="http://www.w3.org/1999/xlink" x="0px" y="0px" width="23px" height="16px"
	 viewBox="0 0 23 16" enable-background="new 0 0 23 16" xml:space="preserve">
<title></title>
<path fill="#7F8C8D" d="M11,8.979V16l-7.875-4.8H1.042C0,11.2,0,10.133,0,10.133V5.867c0,0,0-1.067,1.042-1.067h2.083L3.85,4.358
	L11,8.979L11,8.979z"/>
<polygon fill="#7F8C8D" points="11,5.407 11,0 6.694,2.624 11,5.407 "/>
<path fill="#669933" d="M14.18,11.035C13.292,12.465,12,13,12,13v-1.111c0,0,0.803-0.34,1.392-1.363L14.18,11.035L14.18,11.035z"/>
<path fill="#669933" d="M15,7.992C14.996,4.242,12,3,12,3v1.111c0,0,1.698,0.72,1.965,3.212L15,7.992L15,7.992z"/>
<path fill="#669933" d="M16.551,12.566C15.783,13.568,15,14,15,14v-1.267c0,0,0.334-0.21,0.73-0.697L16.551,12.566L16.551,12.566z"
	/>
<path fill="#669933" d="M17.811,9.809C17.93,9.267,18,8.665,18,8c0-4.35-3-6-3-6v1.225c0,0,2,1.301,2,4.775
	c0,0.444-0.033,0.854-0.09,1.227L17.811,9.809L17.811,9.809z"/>
<path fill="#669933" d="M19.028,14.168C18.465,14.777,18,15,18,15v-1.32c0,0,0.05-0.026,0.134-0.09L19.028,14.168L19.028,14.168z"/>
<path fill="#669933" d="M20.498,11.546C20.798,10.61,21,9.444,21,8c0-5.561-3-7-3-7v1.298c0,0,2,1.104,2,5.702
	c0,1.236-0.145,2.219-0.355,2.994L20.498,11.546L20.498,11.546z"/>
<polygon fill="#D15800" points="1.962,1.802 21.514,14.676 22.061,13.838 2.508,0.964 "/>
<path id="path-1_1_" fill="none" d="M11,8.979V16l-7.875-4.8H1.042C0,11.2,0,10.133,0,10.133V5.867c0,0,0-1.067,1.042-1.067h2.083
	L3.85,4.358L11,8.979L11,8.979z M11,5.407V0L6.694,2.624L11,5.407L11,5.407z M14.18,11.035C13.292,12.465,12,13,12,13v-1.111
	c0,0,0.803-0.34,1.392-1.363L14.18,11.035L14.18,11.035z M15,7.992C14.996,4.242,12,3,12,3v1.111c0,0,1.698,0.72,1.965,3.212
	L15,7.992L15,7.992z M16.551,12.566C15.783,13.568,15,14,15,14v-1.267c0,0,0.334-0.21,0.73-0.697L16.551,12.566L16.551,12.566z
	 M17.811,9.809C17.93,9.267,18,8.665,18,8c0-4.35-3-6-3-6v1.225c0,0,2,1.301,2,4.775c0,0.444-0.033,0.854-0.09,1.227L17.811,9.809
	L17.811,9.809z M19.028,14.168C18.465,14.777,18,15,18,15v-1.32c0,0,0.05-0.026,0.134-0.09L19.028,14.168L19.028,14.168z
	 M20.498,11.546C20.798,10.61,21,9.444,21,8c0-5.561-3-7-3-7v1.298c0,0,2,1.104,2,5.702c0,1.236-0.145,2.219-0.355,2.994
	L20.498,11.546L20.498,11.546z M1.962,1.802l19.552,12.874l0.547-0.838L2.508,0.964L1.962,1.802z"/>
</svg>
