<svg xmlns="http://www.w3.org/2000/svg" viewBox="0 0 27 27"><path d="M1 1h7v7h-7zM11 1h1v2h1v2h-1v3h1v5h-1v-1h-5v1h-1v-1h-2v2h-2v4h-1v-7h1v1h1v-3h5v1h-3v1h6v-1h1v-1h-3v-6h1v1h1zM13 1h1v1h1v1h-2zM15 1h1v1h-1zM19 1h7v7h-7zM2 2v5h5v-5zM16 2h1v2h1v1h-2zM20 2v5h5v-5zM3 3h3v3h-3zM21 3h3v3h-3zM14 4h1v1h-1zM13 5h1v1h1v1h-1v1h-1zM15 5h1v1h-1zM10 6v2h1v-2zM16 6h1v1h-1zM15 7h1v1h1v-1h1v2h-1v1h-3v-1h1zM1 9h1v1h-1zM19 9h5v1h-1v3h-1v-3h-3zM17 10h2v1h2v1h-6v-1h2zM24 10h1v1h-1zM25 11h1v1h-1zM5 13h1v1h-1zM7 13h4v3h1v3h3v1h-2v1h3v-1h1v-2h-4v-2h1v1h1v-1h1v1h2v-1h-2v-1h4v2h2v1h1v-1h1v-1h1v-1h1v3h-1v1h-3v1h1v1h-1v2h-5v1h-2v-1h1v-1h-2v3h-1v-3h-1v-1h-2v1h1v1h-1v1h-1v-4h2v-2h-1v1h-1v-2h1v-1h-1v-1h1v-1h-3zM14 13h8v1h-8zM23 13h3v1h-1v1h-2v2h-1v-3h1zM6 14h1v1h-1zM13 14h1v1h-1zM4 15h1v2h1v-1h1v1h1v1h-5v-1h1zM7 15h1v1h-1zM8 16h1v1h-1zM18 18v3h3v-3zM1 19h7v7h-7zM19 19h1v1h-1zM25 19h1v2h-1zM2 20v5h5v-5zM3 21h3v3h-3zM23 21h1v1h-1zM24 22h2v4h-4v-1h3v-2h-1zM11 23h1v1h-1zM10 24h1v1h2v1h-4v-1h1zM17 24h1v1h-1zM19 24h2v1h-2zM14 25h1v1h-1zM16 25h1v1h-1zM18 25h1v1h-1z"/></svg>