<?xml version="1.0" encoding="utf-8"?>
<!-- Generator: Adobe Illustrator 16.0.0, SVG Export Plug-In . SVG Version: 6.00 Build 0)  -->
<!DOCTYPE svg PUBLIC "-//W3C//DTD SVG 1.1//EN" "http://www.w3.org/Graphics/SVG/1.1/DTD/svg11.dtd">
<svg version="1.1" id="图层_1" xmlns="http://www.w3.org/2000/svg" xmlns:xlink="http://www.w3.org/1999/xlink" x="0px" y="0px"
	 width="512px" height="512px" viewBox="0 0 512 512" enable-background="new 0 0 512 512" xml:space="preserve">
<path fill="#675F58" d="M363.286,352.235c-0.69-0.016-1.355-0.079-2.006-0.205c-1.382,5.797-6.628,10.207-12.807,10.221H98.003
	c-7.198-0.014-13.167-5.978-13.181-13.183V181.525h276.833v8.349c0.562-0.093,1.136-0.163,1.727-0.163h14.079v-26.771
	c-0.014-16.008-12.979-28.97-28.987-29.006H98.004c-16.01,0.035-28.979,13-29.006,29.006V349.07
	c0.027,15.996,12.997,28.974,29.006,28.999h250.474c14.922-0.027,27.065-11.346,28.669-25.848l-13.809,0.017h-0.054L363.286,352.235
	L363.286,352.235z M345.396,152.519c3.645,0,6.595,2.951,6.595,6.598c0,3.633-2.949,6.587-6.595,6.587
	c-3.644,0-6.591-2.955-6.591-6.587C338.809,155.47,341.756,152.519,345.396,152.519z M293.6,152.92h32.407
	c3.439,0,6.208,2.769,6.208,6.196c0,3.42-2.77,6.195-6.208,6.195H293.6c-3.427,0-6.198-2.775-6.198-6.195
	C287.396,155.689,290.173,152.92,293.6,152.92z"/>
<path fill="#FF931E" d="M380.021,238.701c-2.879-0.807-5.911-1.27-9.048-1.27c-1.96,0-3.853,0.207-5.712,0.525
	c-6.979,1.197-13.222,4.505-18.01,9.296c-6.082,6.069-9.812,14.455-9.812,23.713c0,9.271,3.73,17.651,9.812,23.714
	c4.354,4.354,9.882,7.475,16.071,8.918c2.464,0.572,5.008,0.903,7.647,0.903c2.828,0,5.579-0.392,8.208-1.056
	c5.962-1.501,11.289-4.559,15.498-8.769c6.077-6.062,9.827-14.44,9.827-23.714c0-9.26-3.75-17.645-9.827-23.713
	C390.678,243.24,385.639,240.277,380.021,238.701z M380.021,279.582c-2.285,2.396-5.484,3.904-9.048,3.904
	c-2.068,0-4.005-0.554-5.712-1.44c-4.021-2.086-6.8-6.243-6.8-11.077c0-4.848,2.775-8.996,6.8-11.08
	c1.708-0.888,3.644-1.435,5.712-1.435c3.562,0,6.762,1.504,9.048,3.895c2.148,2.245,3.479,5.271,3.479,8.62
	C383.5,274.309,382.172,277.344,380.021,279.582z"/>
<path fill="#669933" d="M441.021,261.183l-15.154-1.803c-1.438-6.894-4.163-13.32-7.902-19.023l9.456-12
	c0.679-0.838,0.611-2.166-0.172-2.935l-10.727-10.737c-0.766-0.758-2.085-0.845-2.954-0.17l-11.987,9.457
	c-5.703-3.726-12.117-6.451-19.021-7.893l-1.798-15.159c-0.054-0.541-0.332-1.028-0.743-1.388c-0.392-0.346-0.907-0.571-1.461-0.571
	h-13.294h-1.879c-1.083,0-2.068,0.876-2.212,1.96l-1.779,15.16c-6.904,1.441-13.325,4.167-19.023,7.893l-12.006-9.457
	c-0.837-0.675-2.159-0.588-2.941,0.17l-10.719,10.737c-0.777,0.769-0.862,2.097-0.173,2.941l9.44,11.993
	c-3.719,5.703-6.454,12.129-7.889,19.022l-15.154,1.803c-1.089,0.124-1.966,1.115-1.966,2.194v15.174
	c0,1.09,0.878,2.085,1.966,2.218l15.154,1.779c1.435,6.907,4.17,13.322,7.889,19.045l-6.146,7.812l-3.292,4.17
	c-0.69,0.863-0.604,2.178,0.172,2.935l7.647,7.663l0.146,0.16l2.923,2.908c0.771,0.771,2.105,0.85,2.955,0.173l3.924-3.081
	l0.183-0.16l7.889-6.216c3.965,2.598,8.289,4.649,12.871,6.19c0.166,0.054,0.316,0.132,0.481,0.186
	c1.849,0.598,3.732,1.123,5.674,1.526l1.776,15.151c0.143,1.084,1.129,1.954,2.212,1.969l15.173-0.017
	c1.076,0.017,2.095-0.87,2.206-1.953l1.802-15.151c1.919-0.404,3.806-0.932,5.665-1.526c4.755-1.541,9.258-3.687,13.354-6.376
	l8.062,6.362l3.924,3.093c0.871,0.679,2.189,0.598,2.955-0.172l2.929-2.922l7.797-7.812c0.784-0.756,0.851-2.07,0.173-2.934
	l-9.457-11.98c3.74-5.724,6.469-12.139,7.902-19.046l15.154-1.779c1.062-0.132,1.979-1.129,1.979-2.217v-15.174
	C442.999,262.299,442.083,261.306,441.021,261.183z M376.043,311.01c-1.668,0.214-3.354,0.359-5.067,0.359
	c-5.03,0-9.812-0.97-14.251-2.646c-15.269-5.764-26.138-20.479-26.138-37.76c0-20.363,15.087-37.158,34.677-39.941
	c1.865-0.271,3.762-0.451,5.712-0.451c3.107,0,6.139,0.388,9.048,1.059c17.936,4.114,31.343,20.146,31.343,39.333
	C411.365,291.54,395.958,308.514,376.043,311.01z"/>
<g>
	<path fill="#675F58" d="M154.251,243.252l-18.673,57.492h16.993l2.902-10.73h18.6l2.816,10.73h16.919l-18.906-57.492H154.251z
		 M158.688,277.316c2.377-8.979,3.904-14.994,4.595-18.049c0.69-3.055,1.155-5.25,1.394-6.575c0.26,1.436,0.803,3.807,1.621,7.123
		c0.824,3.313,1.528,6.022,2.098,8.108l2.471,9.393H158.688L158.688,277.316z"/>
	<path fill="#675F58" d="M223.833,243.488h-19.829v57.255h15.473v-18.997h4.356c6.933,0,12.291-1.747,16.056-5.229
		c3.778-3.484,5.672-8.422,5.672-14.819c0-5.822-1.819-10.309-5.444-13.471C236.491,245.07,231.058,243.488,223.833,243.488z
		 M227.831,267.184c-1.354,1.303-3.214,1.952-5.533,1.952h-2.823V255.98h3.998c4.276,0,6.422,1.937,6.422,5.797
		C229.896,264.076,229.206,265.881,227.831,267.184z"/>
	<rect x="258.696" y="243.488" fill="#675F58" width="15.539" height="57.255"/>
</g>
<g id="Layer_1">
</g>
</svg>
