<?xml version="1.0" encoding="utf-8"?>
<!-- Generator: Adobe Illustrator 16.0.0, SVG Export Plug-In . SVG Version: 6.00 Build 0)  -->
<!DOCTYPE svg PUBLIC "-//W3C//DTD SVG 1.1//EN" "http://www.w3.org/Graphics/SVG/1.1/DTD/svg11.dtd">
<svg version="1.1" id="图层_1" xmlns="http://www.w3.org/2000/svg" xmlns:xlink="http://www.w3.org/1999/xlink" x="0px" y="0px"
	 width="512px" height="512px" viewBox="50 140 512 512" enable-background="new 50 140 512 512" xml:space="preserve">
<g id="_x32_7">
	<g>
		<path fill="#675F58" d="M383.284,346.294l-8.766,8.799v0.97c2.604,0.093,5.127,0.869,7.431,2.171l1.281-1.288l5.14-5.101h8.78
			l-5.553-5.552H383.284z"/>
		<path fill="#675F58" d="M359.284,352.525l5.479,5.504l4.258-1.282c0.079-0.026,0.174-0.033,0.266-0.06l-4.163-4.163H359.284z"/>
		<path fill="#675F58" d="M301.876,243c-84.522,0-152.997,68.505-152.997,153.006C148.88,480.481,217.354,549,301.876,549
			c23.593,0,45.947-5.358,65.895-14.908c-3.825-1.057-7.099-3.406-9.245-6.655c-1.547,0.479-3.167,0.725-4.826,0.725
			c-3.141,0-6.162-0.896-8.772-2.576l-7.803-4.769c-4.058-2.284-6.793-6.148-7.789-10.485c-4.815-0.457-9.124-2.954-11.854-6.894
			l-5.393-7.383c-2.879-3.652-3.941-8.222-3.241-12.571c-4.104-2.172-7.188-5.997-8.271-10.665l-0.781-2.896h-6.289l-6.527,9.317
			v20.911l-19.079,13.946v25.108l-21.39-19.498v-51.205l-22.801-21.377v-26.011l-15.765-11.628h-13.985l-9.988-10.021v-13.72
			l-6.706-4.143l-1.912,5.101l3.284,1.86v11.648l-8.371-10.24l-4.184-16.303l-3.748-0.936v-28.416
			c7.474-20.028,19.073-38.044,33.865-52.912l46.567,0.438l-1.81,9.767l-13.969,0.911l1.385,4.642l3.273,3.751l-3.746,6.023
			l-11.14-1.348l6.521,8.831l11.12,7.863l3.738,8.852l4.625-1.401v-22.797h12.597v2.815h13.019v15.805h-5.584v6.508h-5.578v4.19
			h7.885l-5.09,5.106l-2.105-2.092l-4.918,4.854v4.203l-4.379,4.409l-5.562,5.591l-6.545,6.521l-4.379,4.416v13.951h-6.103v-7.471
			h-19.955v8.427l19.534,18.582h39.03v3.711h13.982l15.343,19.524h3.005l1.254-8.129c0.613-4.869,3.447-9.064,7.445-11.642
			c-0.844-2.683-0.9-5.532-0.322-8.294v-25.666l9.085-9.019h15.307l9.781-9.788h5.114h6.527v2.431
			c1.991-2.896,4.847-5.099,8.3-6.215l-4.137-4.13v-3.732l-8.374-8.375l-6.256,6.275l-5.353,5.386v9.734h-10.711v-4.603v-14.901
			h3.938v-3.5l2.563-2.576l-4.608-4.635l-6.083,6.049l-4.888-4.901l2.604-2.543v-4.622v-9.329h9.748v5.591l8.328,8.361h6.096v-6.527
			h18.58v-6.487h7.425v-9.29h-7.875v-8.838h-4.191v17.677l-3.267,3.253l-6.501-2.802l-11.156-2.795l0.891-10.646l11.196-8.4
			l6.494-11.163l12.106-2.803l-1.396,5.591l7.896,1.369l-0.452,5.591l8.819-0.923l4.197-2.796l0.915-4.635h18.646
			c25.162,24.092,41.902,56.97,45.289,93.666c1.728,0.937,3.229,2.218,4.504,3.746C449.291,306.172,382.979,243,301.876,243z
			 M264.636,308.576h-13.46v-27.917h-9.327v-13.46h-6.022v7.889l-5.8,5.824h-13.712l-3.786-3.798
			c13.385-10.1,28.564-17.997,44.97-23.116l2.757,2.735l-4.888,4.901H247v8.334h11.634h6.003L264.636,308.576L264.636,308.576z
			 M334.396,268.6v16.954h-8.122l-7.019,6.986l-16.931,16.973l-8.815,8.852l-7.435-7.45v-19.073h7.435v-8.846h-5.136h-1.392v-22.764
			h9.308v-11.64l0.535-1.223c1.634-0.072,3.321-0.167,5.054-0.167c7.398,0,14.715,0.572,21.841,1.634v7.664h10.68V268.6H334.396z"/>
	</g>
	<path fill="#FF931E" d="M460.807,448.269l-13.858-3.687c0-0.046-0.007-0.1-0.007-0.139c-0.047-1.7-0.146-3.367-0.346-5.015
		l2.178-0.896l11.103-4.521c1.515-0.625,2.345-2.231,1.873-3.565l-2.518-9.412c-0.259-1.42-1.793-2.39-3.392-2.157l-2.79,0.385
		l-11.713,1.621c-0.664-1.442-1.408-2.877-2.178-4.244l10.451-9.749c1.169-1.102,1.369-2.869,0.459-3.964l-1.335-1.854l-4.39-6.055
		c-0.563-0.944-1.707-1.355-2.848-1.176c-0.358,0.054-0.711,0.159-1.057,0.339l-13.526,7.424c-0.971-0.87-1.967-1.707-2.988-2.489
		l6.4-13.249c0.704-1.454,0.253-3.193-1.002-3.885l-8.188-5.306c-0.89-0.71-2.198-0.617-3.214,0.067
		c-0.266,0.172-0.525,0.351-0.731,0.604l-6.136,7.285l-4.269,5.072c-0.047,0.033-0.08,0.074-0.107,0.147
		c-0.298-0.113-0.571-0.212-0.896-0.292l0.325-16.11c0.033-1.619-1.108-3.021-2.529-3.094l-5.366-0.791l-3.632-0.524l-0.657-0.093
		c-0.665-0.165-1.354,0.006-1.946,0.365c-0.638,0.412-1.161,1.069-1.374,1.9l-2.577,9.331l-1.7,6.155
		c-0.956,0.027-1.938,0.054-2.882,0.133c-0.074-0.179-0.127-0.352-0.174-0.532l-3.035-6.912l-0.113-0.279l-3.347-7.617
		c-0.266-0.612-0.717-1.062-1.222-1.394c-0.73-0.485-1.608-0.678-2.417-0.386l-9.331,2.79c-1.388,0.299-2.305,1.846-2.064,3.439
		l2.564,15.479c-1.01,0.425-1.993,0.89-2.988,1.375c-0.067-0.08-0.132-0.173-0.227-0.258l-11.422-11.475
		c-1.102-1.142-2.901-1.295-3.984-0.332l-7.702,5.969c-1.202,0.764-1.515,2.55-0.704,3.925l8.074,13.687
		c-0.901,0.884-1.766,1.826-2.588,2.763c-0.041,0-0.08-0.033-0.134-0.033l-14.734-6.687c-1.448-0.665-3.194-0.174-3.825,1.115
		l-5.093,8.301c-0.838,1.175-0.52,2.934,0.763,3.945l7.378,5.903l5.252,4.209c0.047,0.006,0.073,0.053,0.093,0.053
		c-0.479,1.222-0.943,2.464-1.328,3.759c-0.06,0-0.106-0.04-0.139-0.04l-16.163-0.466c-1.594-0.025-3.019,1.116-3.138,2.538
		l-1.484,9.648c-0.305,1.388,0.678,2.875,2.255,3.34l15.542,4.41c0.061,0,0.133,0,0.18,0.008c0,1.161,0.067,2.29,0.14,3.412
		c-0.073,0.014-0.166,0.054-0.213,0.093l-14.98,6.062c-1.518,0.618-2.352,2.219-1.847,3.56l2.51,9.438
		c0.246,1.401,1.78,2.376,3.389,2.145l15.851-2.178c0.479,1.175,1.049,2.317,1.613,3.412l-1.183,1.116l-10.18,9.642
		c-1.175,1.104-1.349,2.923-0.419,3.985l5.751,7.849c0.757,1.208,2.518,1.574,3.938,0.777l13.745-7.609
		c0.843,0.862,1.772,1.687,2.717,2.51l-2.471,5.512l-3.765,8.406c-0.644,1.489-0.153,3.194,1.136,3.825l8.32,5.08
		c1.163,0.823,2.929,0.473,3.951-0.764l9.496-12.053c1.314,0.531,2.604,1.002,3.945,1.413l-0.292,15.333
		c-0.026,1.613,1.102,3.015,2.55,3.108l8.235,1.188l1.407,0.193c1.396,0.318,2.882-0.711,3.321-2.259l2.682-9.802l1.382-5.021
		c0.743,0,1.501-0.021,2.224-0.073l3.439,8.532l1.143,2.842l0.977,2.438c0.617,1.494,2.204,2.344,3.532,1.865l9.455-2.483
		c0.545-0.1,1.003-0.425,1.369-0.838c0.584-0.643,0.942-1.554,0.803-2.535l-0.803-6.056l-0.718-5.306l-0.372-2.757
		c0.358-0.14,0.737-0.325,1.09-0.484c0.982-0.413,1.938-0.831,2.934-1.314l0.353,0.358l9.795,10.033
		c1.155,1.143,2.948,1.289,4.024,0.351l7.729-5.889c1.214-0.784,1.533-2.557,0.73-3.938l-7.039-12.125
		c1.122-1.122,2.217-2.338,3.267-3.552l13.023,5.902c1.481,0.664,3.207,0.179,3.885-1.121l5.08-8.328
		c0.83-1.13,0.49-2.916-0.744-3.906l-11.348-9.052c0.585-1.421,1.128-2.876,1.566-4.375l14.352,0.166
		c1.653,0.02,2.994-1.169,3.087-2.564l1.314-9.668C463.383,450.182,462.359,448.7,460.807,448.269z M430.026,432.179
		c2.092,6.322,2.796,13.255,1.747,20.321c-1.076,7.557-4.01,14.396-8.274,20.168l-12.444-9.814l-1.507-1.189
		c0.59-0.855,0.995-1.846,1.507-2.756c1.501-2.756,2.702-5.697,3.174-8.972c0.559-3.845,0.253-7.637-0.743-11.149L430.026,432.179z
		 M426.315,423.877l-15.261,6.062l-1.507,0.611c-1.401-1.979-3.062-3.732-4.947-5.259c-1.926-1.549-4.077-2.843-6.39-3.858
		c-0.77-0.332-1.513-0.711-2.336-0.983l2.336-16.184l0.213-1.527c4.568,1.142,8.794,2.948,12.631,5.325
		c2.204,1.361,4.217,2.963,6.122,4.67C420.789,415.955,423.925,419.688,426.315,423.877z M385.899,457.605
		c-6.375-0.923-10.784-6.813-9.874-13.195c0.943-6.374,6.847-10.791,13.202-9.874c2.037,0.305,3.817,1.136,5.353,2.284
		c1.572,1.202,2.822,2.802,3.631,4.603c0.857,1.925,1.223,4.098,0.896,6.335c-0.152,1.062-0.484,2.039-0.896,2.98
		c-0.809,1.86-2.059,3.474-3.631,4.67C392.189,457.192,389.101,458.07,385.899,457.605z M375.554,403.053
		c4.423-1.242,9.098-1.832,13.893-1.627l-2.59,17.743c-4.031,0.101-7.855,1.177-11.302,2.916c-1.707,0.862-3.34,1.833-4.821,3.029
		l-14.21-11.171C361.848,408.829,368.375,405.063,375.554,403.053z M345.472,461.157c-2.377-6.66-3.228-13.998-2.139-21.482
		c0.764-5.313,2.444-10.221,4.835-14.663c0.757-1.428,1.588-2.81,2.497-4.13l13.991,11.016c-1.892,3.042-3.214,6.527-3.765,10.333
		c-0.624,4.304-0.132,8.492,1.144,12.317l-6.402,2.564L345.472,461.157z M352.849,474.134c-1.214-1.514-2.391-3.082-3.406-4.755
		l7.683-3.068l9.225-3.68c2.437,3.122,5.571,5.719,9.204,7.537c1.183,0.578,2.418,1.097,3.705,1.507l-2.564,17.758
		c-3.851-0.956-7.411-2.543-10.743-4.41C360.903,482.203,356.415,478.557,352.849,474.134z M411.055,484.068
		c-4.98,3.082-10.565,5.219-16.475,6.155c-0.233,0.033-0.473,0.039-0.704,0.078c-2.224,0.313-4.51,0.445-6.801,0.434
		c-0.473-0.008-0.917,0.025-1.374,0.006l2.57-17.757c1.707-0.033,3.34-0.306,4.961-0.672c0.451-0.099,0.901-0.172,1.349-0.291
		c1.248-0.346,2.45-0.811,3.632-1.314c1.693-0.71,3.334-1.547,4.841-2.604l8.002,6.309l6.297,4.968
		C415.397,481.133,413.272,482.68,411.055,484.068z"/>
</g>
<g id="Layer_1">
</g>
</svg>
