<?xml version="1.0" encoding="utf-8"?>
<!-- Generator: Adobe Illustrator 16.0.0, SVG Export Plug-In . SVG Version: 6.00 Build 0)  -->
<!DOCTYPE svg PUBLIC "-//W3C//DTD SVG 1.1//EN" "http://www.w3.org/Graphics/SVG/1.1/DTD/svg11.dtd">
<svg version="1.1" id="图层_1" xmlns="http://www.w3.org/2000/svg" xmlns:xlink="http://www.w3.org/1999/xlink" x="0px" y="0px"
	 width="512px" height="512px" viewBox="0 0 512 512" enable-background="new 0 0 512 512" xml:space="preserve">
<path fill="#675F58" d="M292.432,348.45H96.871c-6.909-0.016-12.65-5.751-12.667-12.686V174.739h266.08v52.911h13.699
	c0.512,0,1.004,0.061,1.492,0.144v-70.922c-0.012-15.376-12.488-27.841-27.861-27.878H96.871
	c-15.376,0.037-27.841,12.5-27.871,27.878v178.895c0.03,15.389,12.495,27.858,27.871,27.878h199.2l-2.863-2.854
	C289.9,357.549,289.588,352.143,292.432,348.45z M334.66,146.861c3.498,0,6.334,2.839,6.334,6.342c0,3.496-2.836,6.335-6.334,6.335
	c-3.5,0-6.336-2.838-6.336-6.335C328.324,149.701,331.158,146.861,334.66,146.861z M284.867,147.24h31.158
	c3.293,0,5.955,2.676,5.955,5.963c0,3.279-2.662,5.956-5.955,5.956h-31.158c-3.287,0-5.955-2.677-5.955-5.956
	C278.912,149.916,281.58,147.24,284.867,147.24z"/>
<path fill="#FF931E" d="M378.182,275.676c-2.957-0.83-6.092-1.308-9.311-1.308c-2.021,0-3.971,0.206-5.879,0.531
	c-7.186,1.233-13.602,4.647-18.547,9.574c-6.248,6.242-10.096,14.883-10.096,24.41c0,9.536,3.848,18.162,10.096,24.411
	c4.48,4.469,10.174,7.689,16.543,9.163c2.537,0.597,5.15,0.943,7.883,0.943c2.922,0,5.742-0.405,8.445-1.082
	c6.137-1.55,11.621-4.689,15.965-9.024c6.248-6.249,10.111-14.875,10.111-24.411c0-9.527-3.861-18.169-10.111-24.41
	C389.145,280.352,383.967,277.29,378.182,275.676z M378.182,317.758c-2.357,2.457-5.65,4.01-9.311,4.01
	c-2.139,0-4.125-0.562-5.879-1.484c-4.156-2.141-6.998-6.415-6.998-11.397c0-4.992,2.84-9.269,6.998-11.407
	c1.754-0.916,3.74-1.474,5.879-1.474c3.658,0,6.951,1.555,9.311,4.004c2.211,2.312,3.594,5.426,3.594,8.877
	C381.773,312.326,380.393,315.434,378.182,317.758z"/>
<path fill="#669933" d="M440.967,298.806l-15.59-1.846c-1.482-7.093-4.297-13.72-8.141-19.59l9.732-12.338
	c0.697-0.87,0.625-2.243-0.174-3.032l-11.049-11.045c-0.785-0.785-2.133-0.87-3.041-0.18l-12.324,9.734
	c-5.885-3.831-12.482-6.634-19.584-8.117l-1.846-15.608c-0.062-0.558-0.354-1.062-0.771-1.427c-0.404-0.369-0.938-0.592-1.494-0.592
	h-13.693h-1.939c-1.102,0-2.125,0.91-2.258,2.019l-1.846,15.608c-7.107,1.482-13.713,4.286-19.59,8.117l-12.348-9.734
	c-0.869-0.689-2.229-0.604-3.041,0.18L310.945,262c-0.797,0.789-0.896,2.163-0.176,3.032l9.723,12.338
	c-3.838,5.87-6.643,12.497-8.135,19.59l-15.586,1.846c-1.115,0.134-2.02,1.155-2.02,2.271v15.619c0,1.107,0.902,2.139,2.02,2.271
	l15.586,1.833c1.492,7.118,4.297,13.706,8.135,19.604l-6.352,8.048l-3.373,4.284c-0.723,0.896-0.625,2.25,0.176,3.025l7.869,7.885
	l0.164,0.163l2.994,3.005c0.797,0.791,2.172,0.867,3.057,0.173l4.023-3.178l0.186-0.163l8.123-6.396
	c4.092,2.675,8.547,4.787,13.256,6.367c0.164,0.061,0.33,0.14,0.488,0.2c1.918,0.608,3.84,1.153,5.846,1.571l1.846,15.594
	c0.133,1.107,1.156,2.019,2.26,2.023L376.686,383c1.104,0.007,2.141-0.91,2.266-2.019l1.848-15.594
	c1.986-0.418,3.91-0.963,5.824-1.571c4.893-1.596,9.52-3.802,13.758-6.567l8.287,6.548l4.039,3.188
	c0.908,0.695,2.258,0.616,3.039-0.172l3.021-3.019l8.029-8.034c0.797-0.775,0.869-2.131,0.172-3.026l-9.732-12.331
	c3.846-5.896,6.658-12.484,8.141-19.604l15.592-1.832c1.104-0.132,2.031-1.161,2.031-2.271v-15.619
	C443,299.961,442.072,298.938,440.967,298.806z M374.09,350.098c-1.719,0.213-3.451,0.366-5.219,0.366
	c-5.189,0-10.104-0.978-14.67-2.703c-15.719-5.95-26.908-21.092-26.908-38.875c0-20.964,15.527-38.257,35.701-41.119
	c1.92-0.271,3.871-0.458,5.877-0.458c3.207,0,6.301,0.397,9.311,1.083c18.471,4.244,32.262,20.744,32.262,40.494
	C410.441,330.07,394.576,347.521,374.09,350.098z"/>
<g id="Layer_1">
</g>
<g id="Layer_1_1_">
	<g>
		<path fill="#675F58" d="M170,291.377v-5.127c0-6.357,3.843-11.964,9.653-15.352c-5.002-2.12-9.595-4.999-13.667-8.482
			C159.208,268.515,155,276.947,155,286.25v5.127c-8.708,3.121-15,11.356-15,21.123c0,12.408,10.097,22.5,22.5,22.5
			s22.5-10.092,22.5-22.5C185,302.733,178.708,294.498,170,291.377z M162.5,320c-4.138,0-7.5-3.369-7.5-7.5s3.362-7.5,7.5-7.5
			s7.5,3.369,7.5,7.5S166.639,320,162.5,320z"/>
		<path fill="#675F58" d="M230,228.611v2.634c0,7.387-4.014,13.891-10.092,17.698c4.994,2.056,9.594,4.846,13.681,8.251
			c7.017-6.585,11.411-15.763,11.411-25.941v-2.635c8.709-3.111,15-11.354,15-21.118c0-12.402-10.091-22.5-22.5-22.5
			S215,195.098,215,207.5C215,217.264,221.292,225.507,230,228.611z M237.5,200c4.139,0,7.5,3.369,7.5,7.5s-3.361,7.5-7.5,7.5
			s-7.5-3.369-7.5-7.5S233.362,200,237.5,200z"/>
		<path fill="#675F58" d="M244.518,291.23C241.44,269.385,222.676,252.5,200,252.5c-14.521,0-26.638-10.355-29.399-24.066
			C179.001,225.161,185,217.04,185,207.5c0-12.402-10.097-22.5-22.5-22.5S140,195.098,140,207.5c0,9.945,6.526,18.3,15.487,21.27
			c3.076,21.851,21.832,38.73,44.513,38.73c14.518,0,26.639,10.357,29.4,24.068c-8.402,3.266-14.4,11.395-14.4,20.932
			c0,12.408,10.092,22.5,22.5,22.5s22.5-10.092,22.5-22.5C260,302.553,253.475,294.205,244.518,291.23z M162.5,200
			c4.138,0,7.5,3.369,7.5,7.5s-3.362,7.5-7.5,7.5s-7.5-3.369-7.5-7.5S158.362,200,162.5,200z M237.5,320c-4.139,0-7.5-3.369-7.5-7.5
			s3.361-7.5,7.5-7.5s7.5,3.369,7.5,7.5S241.639,320,237.5,320z"/>
	</g>
</g>
</svg>
