<svg xmlns="http://www.w3.org/2000/svg" viewBox="0 0 27 27"><path d="M1 1h7v7h-7zM9 1h2v1h3v1h-3v1h-2zM14 1h2v2h2v1h-3v1h-1v-2h1v-1h-1zM19 1h7v7h-7zM2 2v5h5v-5zM20 2v5h5v-5zM3 3h3v3h-3zM21 3h3v3h-3zM12 4h1v1h-1zM9 5h2v1h-2zM13 5h1v1h1v-1h1v4h-2v-1h1v-1h-1v1h-1zM17 6h1v2h-1zM9 7h1v1h-1zM11 7h1v1h-1zM12 8h1v1h-1zM1 9h1v1h2v-1h8v1h-2v2h-1v-2h-3v1h-2v1h-1v1h-1v-2h-1zM18 9h1v2h-1v2h-1v-1h-1v-2h2zM21 9h1v1h1v-1h3v1h-2v1h-3zM13 10h1v1h-1zM6 11h2v1h-2zM14 11h1v1h-1zM19 11h2v1h-1v1h1v1h-2v1h2v1h1v4h1v2h-2v1h-2v-1h-1v1h-2v-2h1v-2h-2v-1h-2v1h-2v-1h1v-1h1v-1h1v1h1v-1h-1v-1h-1v-1h2v1h1v-1h1v3h1v-4h1zM25 11h1v3h-1zM4 12h2v1h3v2h1v1h2v1h-1v1h-1v3h1v4h1v-2h1v-1h-1v-1h-1v-1h2v1h1v1h1v1h-1v1h-1v2h-4v-1h1v-2h-1v-7h-3v-1h-1v1h1v2h-1v-1h-1v1h-1v-2h1v-2h1v-1h-1zM10 12h1v1h-1zM15 12h1v2h-1zM23 12h1v1h-1zM3 13h1v1h-1zM11 13h2v1h-1v1h-1zM1 14h2v2h-1v2h-1zM7 14v1h1v-1zM21 14h2v2h-1v-1h-1zM24 14h1v1h-1zM25 15h1v3h-1v-1h-1v1h-1v-2h2zM19 16v1h1v-1zM7 17h1v1h-1zM18 18v3h3v-3zM1 19h7v7h-7zM13 19h2v2h-1v-1h-1zM19 19h1v1h-1zM23 19h3v2h-1v-1h-2zM2 20v5h5v-5zM3 21h3v3h-3zM23 22h3v4h-1v-1h-2v-1h1v-1h-1zM15 23h1v1h-1zM21 23h1v1h-1zM16 24h1v1h1v1h-3v-1h1zM18 24h1v1h-1zM20 24h1v1h-1zM19 25h1v1h-1zM21 25h1v1h-1z"/></svg>