<?xml version="1.0" encoding="utf-8"?>
<!-- Generator: Adobe Illustrator 16.0.0, SVG Export Plug-In . SVG Version: 6.00 Build 0)  -->
<!DOCTYPE svg PUBLIC "-//W3C//DTD SVG 1.1//EN" "http://www.w3.org/Graphics/SVG/1.1/DTD/svg11.dtd">
<svg version="1.1" id="Layer_1" xmlns="http://www.w3.org/2000/svg" xmlns:xlink="http://www.w3.org/1999/xlink" x="0px" y="0px"
	 width="300px" height="300px" viewBox="0 0 300 300" enable-background="new 0 0 300 300" xml:space="preserve">
<path fill="#675F58" d="M150.52,15.398c-74.562,0-135,60.442-135,135.001c0,74.555,60.439,135.003,135,135.003
	c74.559,0,135.002-60.448,135.002-135.003C285.521,75.84,225.076,15.398,150.52,15.398z M150.52,266.312
	c-64.018,0-115.913-51.897-115.913-115.915S86.502,34.49,150.52,34.49c64.015,0,115.91,51.894,115.91,115.909
	S214.532,266.312,150.52,266.312z"/>
<path fill="#675F58" d="M254.947,150.401c0,57.672-46.756,104.424-104.428,104.424c-57.679,0-104.432-46.752-104.432-104.424
	c0-57.676,46.753-104.432,104.432-104.432C208.191,45.969,254.947,92.725,254.947,150.401z"/>
<path fill="#FFFFFF" d="M159.567,118.096c-2.875-0.807-5.924-1.271-9.058-1.271c-1.963,0-3.862,0.2-5.717,0.517
	c-6.987,1.202-13.229,4.522-18.041,9.313c-6.076,6.071-9.816,14.476-9.816,23.743c0,9.275,3.74,17.667,9.816,23.744
	c4.36,4.347,9.896,7.479,16.091,8.913c2.469,0.581,5.014,0.918,7.667,0.918c2.843,0,5.587-0.395,8.216-1.053
	c5.969-1.506,11.305-4.562,15.527-8.778c6.078-6.077,9.838-14.469,9.838-23.744c0-9.269-3.759-17.673-9.838-23.743
	C170.231,122.644,165.194,119.666,159.567,118.096z M159.567,159.028c-2.295,2.391-5.498,3.9-9.058,3.9
	c-2.079,0-4.011-0.549-5.717-1.446c-4.043-2.079-6.808-6.239-6.808-11.085c0-4.855,2.764-9.017,6.808-11.097
	c1.706-0.892,3.638-1.435,5.717-1.435c3.56,0,6.763,1.514,9.058,3.896c2.15,2.248,3.494,5.278,3.494,8.636
	C163.062,153.745,161.719,156.768,159.567,159.028z"/>
<path fill="#FFFFFF" d="M220.64,140.594l-15.166-1.795c-1.44-6.899-4.18-13.345-7.918-19.055l9.469-12.001
	c0.679-0.847,0.607-2.182-0.168-2.949L196.108,94.05c-0.764-0.763-2.073-0.846-2.959-0.174l-11.986,9.469
	c-5.725-3.727-12.145-6.452-19.049-7.896l-1.797-15.182c-0.059-0.543-0.342-1.034-0.748-1.389c-0.395-0.358-0.911-0.575-1.453-0.575
	h-13.32h-1.886c-1.071,0-2.066,0.886-2.196,1.964l-1.796,15.182c-6.912,1.443-13.339,4.169-19.055,7.896l-12.008-9.469
	c-0.848-0.671-2.171-0.588-2.959,0.174l-10.729,10.744c-0.774,0.768-0.872,2.104-0.169,2.949l9.456,12.001
	c-3.733,5.71-6.46,12.155-7.913,19.055l-15.16,1.795c-1.084,0.129-1.963,1.124-1.963,2.209v15.192c0,1.078,0.879,2.08,1.963,2.209
	l15.16,1.781c1.453,6.924,4.18,13.332,7.913,19.067l-6.177,7.828l-3.281,4.167c-0.703,0.872-0.605,2.189,0.17,2.945l7.653,7.666
	l0.162,0.162l2.912,2.92c0.774,0.77,2.111,0.846,2.972,0.168l3.915-3.088l0.18-0.162l7.9-6.22c3.979,2.601,8.312,4.656,12.893,6.192
	c0.16,0.059,0.322,0.136,0.479,0.193c1.865,0.596,3.732,1.125,5.685,1.531l1.796,15.165c0.128,1.079,1.123,1.964,2.196,1.972
	l15.203-0.008c1.072,0.008,2.08-0.885,2.203-1.964l1.797-15.165c1.932-0.406,3.805-0.937,5.664-1.531
	c4.761-1.549,9.263-3.694,13.384-6.387l8.062,6.368l3.928,3.101c0.885,0.678,2.195,0.602,2.957-0.168l2.938-2.935l7.812-7.813
	c0.773-0.756,0.847-2.072,0.168-2.945l-9.469-11.995c3.739-5.733,6.477-12.144,7.918-19.067l15.166-1.783
	c1.071-0.127,1.975-1.129,1.975-2.207v-15.192C222.614,141.718,221.713,140.723,220.64,140.594z M155.588,190.485
	c-1.672,0.207-3.356,0.355-5.077,0.355c-5.044,0-9.823-0.95-14.268-2.629c-15.289-5.787-26.173-20.516-26.173-37.813
	c0-20.391,15.102-37.211,34.725-39.996c1.867-0.264,3.767-0.445,5.717-0.445c3.12,0,6.13,0.388,9.058,1.054
	c17.963,4.128,31.379,20.178,31.379,39.388C190.946,171.005,175.515,187.979,155.588,190.485z"/>
</svg>
