<svg xmlns="http://www.w3.org/2000/svg" viewBox="0 0 27 27"><path d="M1 1h7v7h-7zM12 1h2v1h1v-1h1v1h1v2h1v1h-2v-2h-3v1h2v1h-3v-1h-1v-1h-1v-1h2zM19 1h7v7h-7zM2 2v5h5v-5zM20 2v5h5v-5zM3 3h3v3h-3zM9 3h1v2h1v1h1v2h-1v-1h-1v1h1v1h1v-1h1v2h-1v1h-2v-2h-1zM21 3h3v3h-3zM15 5h1v1h1v1h-1v2h-1zM13 7h1v1h-1zM17 7h1v3h-2v-1h1zM1 9h1v1h1v1h-1v1h-1zM3 9h5v1h-5zM14 9h1v1h-1zM19 9h5v1h-1v3h-1v-1h-1v-1h1v-1h-3zM13 10h1v1h1v-1h1v1h2v2h4v1h-6v-2h-2v1h-2v1h-2v5h-1v-2h-1v-1h-1v1h1v1h-4v-1h1v-1h1v-3h2v1h-1v1h1v-1h1v-1h-1v-1h1v-1h1v1h2v-1h1zM18 10h1v1h-1zM24 10h1v1h-1zM7 11h1v1h-1zM19 11h1v1h-1zM25 11h1v1h-1zM3 12h1v1h1v2h-1v-1h-2v4h-1v-5h2zM5 12h1v1h-1zM14 13h1v1h-1zM23 13h3v1h-1v1h-2v1h-2v-1h1v-1h1zM13 14h1v1h-1zM15 14h1v1h1v1h-2zM18 15h2v1h-2zM25 15h1v3h-1v1h-1v-1h-2v1h1v1h-1v1h2v1h-1v1h-4v-1h-1v1h-1v-1h-1v-1h1v-2h-1v-1h-3v-2h1v1h3v-1h1v1h6v-1h1zM18 18v3h3v-3zM1 19h7v7h-7zM11 19h3v1h-1v1h2v1h-1v1h-1v-1h-1v1h-1v-2h1v-1h-1zM19 19h1v1h-1zM25 19h1v2h-1zM2 20v5h5v-5zM9 20h1v4h-1zM15 20h1v1h-1zM3 21h3v3h-3zM15 22h1v1h-1zM24 22h2v4h-3v-1h2v-2h-1zM18 23h1v1h4v1h-2v1h-2v-1h-2v-1h1zM10 24h2v2h-3v-1h1zM13 24h1v1h-1zM14 25h1v1h-1zM16 25h1v1h-1z"/></svg>